<svg xmlns="http://www.w3.org/2000/svg" viewBox="0 0 640 900" width="640" height="900" role="img" aria-label="Hamilton 汉密尔顿 复古戏剧风海报">
  <defs>
    <radialGradient id="bg" cx="50%" cy="40%" r="78%">
      <stop offset="0%" stop-color="#4a3318"/>
      <stop offset="48%" stop-color="#2a1c0c"/>
      <stop offset="100%" stop-color="#120b04"/>
    </radialGradient>
    <linearGradient id="gold" x1="0" y1="0" x2="0" y2="1">
      <stop offset="0%" stop-color="#f0d894"/>
      <stop offset="50%" stop-color="#c9a24b"/>
      <stop offset="100%" stop-color="#97732c"/>
    </linearGradient>
    <linearGradient id="cream" x1="0" y1="0" x2="0" y2="1">
      <stop offset="0%" stop-color="#fbf3da"/>
      <stop offset="100%" stop-color="#ecdcb4"/>
    </linearGradient>
    <radialGradient id="medal" cx="50%" cy="42%" r="60%">
      <stop offset="0%" stop-color="#fbf3da"/>
      <stop offset="100%" stop-color="#e2cfa0"/>
    </radialGradient>
    <filter id="grain">
      <feTurbulence type="fractalNoise" baseFrequency="0.9" numOctaves="2" stitchTiles="stitch" result="n"/>
      <feColorMatrix in="n" type="matrix" values="0 0 0 0 0  0 0 0 0 0  0 0 0 0 0  0 0 0 0.05 0"/>
      <feComposite operator="over" in2="SourceGraphic"/>
    </filter>
    <filter id="rough">
      <feTurbulence type="fractalNoise" baseFrequency="0.012" numOctaves="2" seed="7" result="t"/>
      <feDisplacementMap in="SourceGraphic" in2="t" scale="3"/>
    </filter>
    <g id="ray">
      <polygon points="320,360 308,-260 332,-260" fill="url(#gold)" opacity="0.16"/>
    </g>
  </defs>

  <!-- background -->
  <rect width="640" height="900" fill="url(#bg)"/>
  <g>
    <use href="#ray" transform="rotate(0 320 360)"/>
    <use href="#ray" transform="rotate(20 320 360)"/>
    <use href="#ray" transform="rotate(40 320 360)"/>
    <use href="#ray" transform="rotate(60 320 360)"/>
    <use href="#ray" transform="rotate(80 320 360)"/>
    <use href="#ray" transform="rotate(100 320 360)"/>
    <use href="#ray" transform="rotate(120 320 360)"/>
    <use href="#ray" transform="rotate(140 320 360)"/>
    <use href="#ray" transform="rotate(160 320 360)"/>
    <use href="#ray" transform="rotate(180 320 360)"/>
    <use href="#ray" transform="rotate(200 320 360)"/>
    <use href="#ray" transform="rotate(220 320 360)"/>
    <use href="#ray" transform="rotate(240 320 360)"/>
    <use href="#ray" transform="rotate(260 320 360)"/>
    <use href="#ray" transform="rotate(280 320 360)"/>
    <use href="#ray" transform="rotate(300 320 360)"/>
    <use href="#ray" transform="rotate(320 320 360)"/>
    <use href="#ray" transform="rotate(340 320 360)"/>
  </g>
  <!-- vignette -->
  <rect width="640" height="900" fill="url(#bg)" opacity="0.35"/>
  <ellipse cx="320" cy="360" rx="250" ry="250" fill="#120b04" opacity="0.25"/>

  <!-- ornamental frame -->
  <rect x="22" y="22" width="596" height="856" fill="none" stroke="url(#gold)" stroke-width="3"/>
  <rect x="34" y="34" width="572" height="832" fill="none" stroke="url(#gold)" stroke-width="1.2" opacity="0.8"/>
  <g fill="url(#gold)">
    <path d="M22 60 L60 22 L52 22 L22 52 Z"/>
    <path d="M618 60 L580 22 L588 22 L618 52 Z"/>
    <path d="M22 840 L60 878 L52 878 L22 848 Z"/>
    <path d="M618 840 L580 878 L588 878 L618 848 Z"/>
  </g>

  <!-- top label -->
  <text x="320" y="84" text-anchor="middle" fill="url(#gold)" font-family="Georgia,'Times New Roman',serif" font-size="18" letter-spacing="7" font-style="italic">AN&#160;AMERICAN&#160;MUSICAL</text>
  <line x1="160" y1="100" x2="480" y2="100" stroke="url(#gold)" stroke-width="1"/>
  <polygon points="320,94 327,100 320,106 313,100" fill="url(#gold)"/>

  <!-- medallion with crossed-pistol H emblem -->
  <g transform="translate(320 360)">
    <circle r="172" fill="#160d04"/>
    <circle r="168" fill="none" stroke="url(#gold)" stroke-width="4"/>
    <circle r="150" fill="url(#medal)"/>
    <circle r="150" fill="none" stroke="url(#gold)" stroke-width="1.4" opacity="0.7"/>
    <g filter="url(#rough)" fill="#1d1306">
      <!-- left pistol (barrel = left upright of H) -->
      <g>
        <rect x="-78" y="-92" width="34" height="186" rx="8"/>
        <polygon points="-82,-92 -44,-92 -50,-118 -76,-118"/>
        <rect x="-90" y="-104" width="14" height="22" rx="3"/>
        <!-- grip crossing toward center -->
        <path d="M-44 70 L18 96 L26 78 L-36 52 Z"/>
        <path d="M-50 70 q 22 8 30 26 q -26 6 -40 -10 Z"/>
      </g>
      <!-- right pistol (mirrored) -->
      <g transform="scale(-1,1)">
        <rect x="-78" y="-92" width="34" height="186" rx="8"/>
        <polygon points="-82,-92 -44,-92 -50,-118 -76,-118"/>
        <rect x="-90" y="-104" width="14" height="22" rx="3"/>
        <path d="M-44 70 L18 96 L26 78 L-36 52 Z"/>
        <path d="M-50 70 q 22 8 30 26 q -26 6 -40 -10 Z"/>
      </g>
      <!-- crossbar (grips meet) -->
      <rect x="-50" y="74" width="100" height="26" rx="10"/>
      <!-- trigger guards -->
      <circle cx="-30" cy="100" r="11" fill="none" stroke="#1d1306" stroke-width="6"/>
      <circle cx="30" cy="100" r="11" fill="none" stroke="#1d1306" stroke-width="6"/>
    </g>
    <circle r="150" fill="none" stroke="#1d1306" stroke-width="0.5" opacity="0.4"/>
  </g>

  <!-- title block -->
  <text x="320" y="624" text-anchor="middle" fill="url(#cream)" font-family="Georgia,'Times New Roman',serif" font-size="64" font-weight="700" letter-spacing="3">HAMILTON</text>
  <text x="320" y="674" text-anchor="middle" fill="url(#gold)" font-family="Georgia,'Times New Roman',serif" font-size="36" letter-spacing="12">&#28450;&#23494;&#23572;&#39039;</text>

  <line x1="150" y1="702" x2="490" y2="702" stroke="url(#gold)" stroke-width="1"/>
  <polygon points="320,696 327,702 320,708 313,702" fill="url(#gold)"/>

  <text x="320" y="738" text-anchor="middle" fill="url(#cream)" font-family="Georgia,'Times New Roman',serif" font-size="19" letter-spacing="3">2015&#160;&#183;&#160;LIN-MANUEL&#160;MIRANDA</text>
  <text x="320" y="856" text-anchor="middle" fill="url(#gold)" font-family="Georgia,'Times New Roman',serif" font-size="13" letter-spacing="2" opacity="0.85">BASED&#160;ON&#160;THE&#160;BIOGRAPHY&#160;BY&#160;RON&#160;CHERNOW</text>

  <rect width="640" height="900" filter="url(#grain)" opacity="0.5"/>
</svg>
